Coordinates
version=1
nRows=30
nColumns=38
inDegrees=no

Units are S.I. units (second, meters, Newtons, ...)
If the header above contains a line with 'inDegrees', this indicates whether rotational values are in degrees (yes) or radians (no).

endheader
time	pelvis_tilt	pelvis_list	pelvis_rotation	pelvis_tx	pelvis_ty	pelvis_tz	hip_flexion_r	hip_adduction_r	hip_rotation_r	knee_angle_r	ankle_angle_r	subtalar_angle_r	mtp_angle_r	hip_flexion_l	hip_adduction_l	hip_rotation_l	knee_angle_l	ankle_angle_l	subtalar_angle_l	mtp_angle_l	lumbar_extension	lumbar_bending	lumbar_rotation	arm_flex_r	arm_add_r	arm_rot_r	elbow_flex_r	pro_sup_r	wrist_flex_r	wrist_dev_r	arm_flex_l	arm_add_l	arm_rot_l	elbow_flex_l	pro_sup_l	wrist_flex_l	wrist_dev_l
2.16667	-0.06009	0.070735	-0.0896564	1.11057	0.953691	-0.346879	0.0867536	0.0210647	0.129647	-0.765191	0.399151	0.0450971	0.000122637	0.874682	0.0650886	-0.110123	-2.08853	0.0600265	0.0502807	0.00022959	-0.163691	-0.0786654	0.189455	-0.297651	-0.163462	-0.133801	1.73791	1.49243	0.0272516	-0.05636	-0.859385	-0.189173	-0.175072	1.68292	1.71699	0.0475329	-0.0238325
2.175	-0.0682988	0.0895813	-0.081177	1.11222	0.95973	-0.347498	0.0400624	-0.00954113	0.116577	-0.716481	0.329764	0.0450971	0.000122637	0.9104	0.0794485	-0.114473	-2.01873	0.0585725	0.0502807	0.00022959	-0.149421	-0.100889	0.195438	-0.300577	-0.161907	-0.139019	1.78791	1.50055	0.0272516	-0.05636	-0.888124	-0.190951	-0.188218	1.71378	1.70751	0.0475329	-0.0238325
2.18333	-0.0771114	0.108628	-0.0706113	1.11414	0.966011	-0.34831	-0.00370587	-0.0394033	0.100413	-0.669052	0.250775	0.0450971	0.000122637	0.940358	0.0954752	-0.119012	-1.94146	0.0543095	0.0502807	0.00022959	-0.134617	-0.123017	0.198005	-0.306117	-0.160293	-0.142093	1.83459	1.50348	0.0272516	-0.05636	-0.916704	-0.192301	-0.200432	1.74549	1.69599	0.0475329	-0.0238325
2.19167	-0.086589	0.127027	-0.0584204	1.11615	0.972343	-0.349264	-0.0434565	-0.0669921	0.0830787	-0.625343	0.165399	0.0450971	0.000122637	0.964638	0.112063	-0.123467	-1.8575	0.0475297	0.0502807	0.00022959	-0.119563	-0.144311	0.197835	-0.313568	-0.158544	-0.143195	1.87689	1.5024	0.0272516	-0.05636	-0.944528	-0.19309	-0.211827	1.77708	1.68392	0.0475329	-0.0238325
2.2	-0.0966769	0.143787	-0.0453204	1.11814	0.978554	-0.350265	-0.0782044	-0.0906863	0.0670766	-0.58788	0.0775679	0.0450971	0.000122637	0.983312	0.127879	-0.127528	-1.76754	0.0386101	0.0502807	0.00022959	-0.104538	-0.163948	0.195884	-0.322295	-0.1566	-0.142758	1.91401	1.499	0.0272516	-0.05636	-0.971045	-0.193217	-0.222555	1.80791	1.67267	0.0475329	-0.0238325
2.20833	-0.107179	0.157913	-0.0321727	1.11998	0.984494	-0.351187	-0.107222	-0.108944	0.0550655	-0.559064	-0.00838126	0.0450971	0.000122637	0.996375	0.141593	-0.130805	-1.67221	0.0279336	0.0502807	0.00022959	-0.0898738	-0.18109	0.193215	-0.331744	-0.154432	-0.141333	1.94537	1.49502	0.0272516	-0.05636	-0.995753	-0.192613	-0.232753	1.8376	1.66325	0.0475329	-0.0238325
2.21667	-0.117737	0.168546	-0.019846	1.12158	0.990043	-0.351891	-0.130148	-0.120509	0.0493458	-0.540939	-0.0880805	0.0450971	0.000122637	1.00371	0.152123	-0.132817	-1.57205	0.0158074	0.0502807	0.00022959	-0.0759792	-0.194994	0.190805	-0.34144	-0.15206	-0.139464	1.97058	1.49199	0.0272516	-0.05636	-1.01822	-0.191238	-0.24251	1.86595	1.65626	0.0475329	-0.0238325
2.225	-0.127827	0.175086	-0.00907885	1.12291	0.995115	-0.352264	-0.147029	-0.124599	0.0513597	-0.535002	-0.157527	0.0450971	0.000122637	1.00513	0.158814	-0.133029	-1.46766	0.00240801	0.0502807	0.00022959	-0.0633357	-0.205125	0.189386	-0.351002	-0.149554	-0.1376	1.98945	1.49105	0.0272516	-0.05636	-1.03808	-0.189082	-0.251839	1.89289	1.65186	0.0475329	-0.0238325
2.23333	-0.136847	0.177309	-0.000379514	1.12396	0.999657	-0.352241	-0.158318	-0.121037	0.0613231	-0.542081	-0.213482	0.0450971	0.000122637	1.0004	0.161529	-0.130927	-1.35969	-0.0122186	0.0502807	0.00022959	-0.0525021	-0.211231	0.189333	-0.360162	-0.147022	-0.136062	2.00193	1.49284	0.0272516	-0.05636	-1.05507	-0.186165	-0.260681	1.91843	1.6499	0.0475329	-0.0238325
2.24167	-0.144163	0.175381	0.00604417	1.12476	1.00365	-0.351817	-0.164788	-0.110323	0.0780853	-0.562307	-0.25385	0.0450971	0.000122637	0.989302	0.16062	-0.126125	-1.24898	-0.0280917	0.0502807	0.00022959	-0.0440825	-0.213391	0.190629	-0.368779	-0.144591	-0.135046	2.00813	1.49759	0.0272516	-0.05636	-1.06902	-0.182544	-0.268918	1.94257	1.65004	0.0475329	-0.0238325
2.25	-0.149161	0.169828	0.0102941	1.12533	1.00711	-0.351053	-0.167399	-0.0936119	0.0992397	-0.595161	-0.277963	0.0450971	0.000122637	0.971729	0.156821	-0.118456	-1.13667	-0.045189	0.0502807	0.00022959	-0.038677	-0.211996	0.192899	-0.376847	-0.142393	-0.134633	2.00831	1.50507	0.0272516	-0.05636	-1.07984	-0.178324	-0.276391	1.96531	1.65184	0.0475329	-0.0238325
2.25833	-0.151333	0.161458	0.0127334	1.12574	1.01004	-0.350061	-0.167138	-0.0726147	0.121473	-0.6396	-0.286692	0.0450971	0.000122637	0.947763	0.151094	-0.108039	-1.02423	-0.0633522	0.0502807	0.00022959	-0.0368159	-0.207688	0.195503	-0.384483	-0.140536	-0.134814	2.00284	1.51468	0.0272516	-0.05636	-1.0875	-0.173665	-0.28293	1.98665	1.65485	0.0475329	-0.0238325
2.26667	-0.150351	0.151257	0.013878	1.12603	1.01246	-0.34898	-0.164828	-0.0494525	0.141144	-0.694255	-0.282326	0.0450971	0.000122637	0.917772	0.144455	-0.0953413	-0.913539	-0.0822536	0.0502807	0.00022959	-0.0388685	-0.201298	0.197681	-0.3919	-0.139099	-0.135493	1.99223	1.52549	0.0272516	-0.05636	-1.09203	-0.168779	-0.288384	2.00654	1.6587	0.0475329	-0.0238325
2.275	-0.146129	0.14028	0.0142812	1.12623	1.01437	-0.347951	-0.160999	-0.0264523	0.154911	-0.75761	-0.268205	0.0450971	0.000122637	0.882477	0.137839	-0.0811623	-0.806771	-0.101451	0.0502807	0.00022959	-0.044955	-0.193766	0.198697	-0.399361	-0.138116	-0.136497	1.97702	1.53633	0.0272516	-0.05636	-1.09353	-0.163928	-0.292639	2.02492	1.66302	0.0475329	-0.0238325
2.28333	-0.138851	0.129557	0.0144283	1.12637	1.01576	-0.347088	-0.15583	-0.00591316	0.160282	-0.828156	-0.248172	0.0450971	0.000122637	0.842965	0.13201	-0.0665411	-0.706329	-0.120495	0.0502807	0.00022959	-0.05489	-0.186051	0.197949	-0.407123	-0.137579	-0.137579	1.95778	1.54584	0.0272516	-0.05636	-1.09207	-0.159391	-0.295642	2.04173	1.66754	0.0475329	-0.0238325
2.29167	-0.128965	0.120015	0.0146649	1.12646	1.01659	-0.346466	-0.149173	0.0101172	0.155965	-0.904498	-0.225948	0.0450971	0.000122637	0.800633	0.127553	-0.0525822	-0.61467	-0.139013	0.0502807	0.00022959	-0.0681767	-0.179053	0.195036	-0.415398	-0.137445	-0.138439	1.935	1.55263	0.0272516	-0.05636	-1.08778	-0.155445	-0.297407	2.05693	1.672	0.0475329	-0.0238325
2.3	-0.117131	0.112416	0.0151668	1.1265	1.01685	-0.346118	-0.140638	0.0200329	0.141978	-0.985406	-0.204566	0.0450971	0.000122637	0.75707	0.1249	-0.0402221	-0.534118	-0.156694	0.0502807	0.00022959	-0.084053	-0.17355	0.189779	-0.424319	-0.137647	-0.138773	1.9091	1.55542	0.0272516	-0.05636	-1.08077	-0.152342	-0.298001	2.07049	1.67613	0.0475329	-0.0238325
2.30833	-0.10413	0.107308	0.0159548	1.12647	1.01646	-0.346037	-0.129708	0.0228103	0.119515	-1.06982	-0.185985	0.0450971	0.000122637	0.713905	0.124392	-0.0299751	-0.466696	-0.173159	0.0502807	0.00022959	-0.10159	-0.170139	0.182201	-0.433944	-0.138109	-0.138333	1.88035	1.5533	0.0272516	-0.05636	-1.07115	-0.150291	-0.297528	2.08238	1.67974	0.0475329	-0.0238325
2.31667	-0.0907794	0.104989	0.0169374	1.12637	1.0154	-0.346194	-0.115837	0.0181183	0.0906806	-1.15686	-0.17096	0.0450971	0.000122637	0.672668	0.126307	-0.02174	-0.414019	-0.187735	0.0502807	0.00022959	-0.119797	-0.169183	0.172489	-0.444259	-0.138761	-0.136975	1.84893	1.54595	0.0272516	-0.05636	-1.05902	-0.149455	-0.296104	2.09259	1.68259	0.0475329	-0.0238325
2.325	-0.0778363	0.105489	0.0179565	1.12616	1.0136	-0.34655	-0.0985323	0.00636137	0.0581574	-1.24573	-0.159139	0.0450971	0.000122637	0.634688	0.130855	-0.0148273	-0.377252	-0.199199	0.0502807	0.00022959	-0.137747	-0.170782	0.160942	-0.455197	-0.13955	-0.134682	1.81493	1.53374	0.0272516	-0.05636	-1.04444	-0.149945	-0.293834	2.1011	1.68447	0.0475329	-0.0238325
2.33333	-0.0659145	0.108585	0.0188377	1.12584	1.01101	-0.347064	-0.0774106	-0.0113546	0.0248569	-1.33574	-0.149389	0.0450971	0.000122637	0.600993	0.138152	-0.00815035	-0.357094	-0.205632	0.0502807	0.00022959	-0.154694	-0.174783	0.147911	-0.466627	-0.14045	-0.131549	1.7784	1.51768	0.0272516	-0.05636	-1.02744	-0.151819	-0.290795	2.10788	1.68515	0.0475329	-0.0238325
2.34167	-0.0554332	0.113853	0.0194291	1.12539	1.00761	-0.347695	-0.0522003	-0.0333338	-0.00641146	-1.42623	-0.140248	0.0450971	0.000122637	0.572271	0.148189	-0.00055421	-0.353761	-0.204469	0.0502807	0.00022959	-0.170148	-0.18081	0.133735	-0.478354	-0.141458	-0.12775	1.73936	1.4993	0.0272516	-0.05636	-1.00798	-0.155082	-0.287033	2.1129	1.68447	0.0475329	-0.0238325
2.35	-0.0466003	0.120735	0.0196225	1.12478	1.00337	-0.348403	-0.022701	-0.057506	-0.0332216	-1.51648	-0.130389	0.0450971	0.000122637	0.548853	0.160812	0.00879206	-0.366916	-0.192826	0.0502807	0.00022959	-0.18388	-0.188342	0.1187	-0.490107	-0.142592	-0.123492	1.69782	1.48023	0.0272516	-0.05636	-0.985968	-0.159698	-0.282554	2.11613	1.68239	0.0475329	-0.0238325
2.35833	-0.03947	0.128625	0.0193485	1.12401	0.998281	-0.349142	0.0112841	-0.0817119	-0.0537439	-1.60573	-0.118962	0.0450971	0.000122637	0.530714	0.175708	0.0200772	-0.395552	-0.168094	0.0502807	0.00022959	-0.195874	-0.196811	0.103022	-0.501547	-0.143865	-0.118998	1.65384	1.46194	0.0272516	-0.05636	-0.961249	-0.165607	-0.277322	2.11752	1.67908	0.0475329	-0.0238325
2.36667	-0.0340216	0.136946	0.0185576	1.12302	0.992391	-0.349857	0.050004	-0.10398	-0.06686	-1.6931	-0.10573	0.0450971	0.000122637	0.5175	0.192401	0.0327491	-0.437861	-0.128697	0.0502807	0.00022959	-0.206228	-0.205679	0.0868601	-0.512297	-0.14527	-0.114519	1.60755	1.44551	0.0272516	-0.05636	-0.933612	-0.172744	-0.271258	2.11711	1.67495	0.0475329	-0.0238325
2.375	-0.0302172	0.145191	0.0172026	1.12177	0.98582	-0.350489	0.0937583	-0.122723	-0.0721701	-1.77759	-0.091022	0.0450971	0.000122637	0.508526	0.210248	0.0456843	-0.491166	-0.0747384	0.0502807	0.00022959	-0.215068	-0.214478	0.0703433	-0.522004	-0.14675	-0.110361	1.55918	1.4316	0.0272516	-0.05636	-0.902822	-0.181065	-0.264241	2.11501	1.67059	0.0475329	-0.0238325
2.38333	-0.0280304	0.15296	0.0152387	1.12019	0.978775	-0.350977	0.142821	-0.136918	-0.0699869	-1.85799	-0.0754915	0.0450971	0.000122637	0.502787	0.228479	0.0575218	-0.551987	-0.00827469	0.0502807	0.00022959	-0.222491	-0.222834	0.0535802	-0.530395	-0.148196	-0.106897	1.50916	1.42036	0.0272516	-0.05636	-0.868673	-0.190557	-0.256143	2.11144	1.66667	0.0475329	-0.0238325
2.39167	-0.0274299	0.159947	0.0126411	1.11825	0.971509	-0.351275	0.197306	-0.146145	-0.0612473	-1.93292	-0.0598413	0.0450971	0.000122637	0.498943	0.246259	0.0671237	-0.616239	0.0669065	0.0502807	0.00022959	-0.22855	-0.230447	0.0366567	-0.537344	-0.149434	-0.104578	1.45818	1.41157	0.0272516	-0.05636	-0.831062	-0.201229	-0.246862	2.10683	1.66383	0.0475329	-0.0238325
2.4	-0.0283447	0.165917	0.00943528	1.11598	0.964303	-0.351366	0.257011	-0.150504	-0.0473751	-2.00083	-0.0446082	0.0450971	0.000122637	0.495338	0.262765	0.0739751	-0.679563	0.145964	0.0502807	0.00022959	-0.233281	-0.237038	0.019625	-0.542921	-0.150248	-0.103918	1.40717	1.40476	0.0272516	-0.05636	-0.79007	-0.213082	-0.236377	2.10183	1.66262	0.0475329	-0.0238325
2.40833	-0.0306372	0.170643	0.0057248	1.11344	0.957454	-0.351271	0.3213	-0.150455	-0.0301201	-2.06008	-0.0300619	0.0450971	0.000122637	0.490095	0.277238	0.0783633	-0.737764	0.22389	0.0502807	0.00022959	-0.236735	-0.242276	0.00249539	-0.547401	-0.150395	-0.105483	1.35735	1.39933	0.0272516	-0.05636	-0.746045	-0.226053	-0.224783	2.0973	1.66341	0.0475329	-0.0238325
